<svg xmlns="http://www.w3.org/2000/svg" version="1.1" xmlns:xlink="http://www.w3.org/1999/xlink" xmlns:svgjs="http://svgjs.dev/svgjs" width="1500" height="1500" viewBox="0 0 1500 1500"><rect width="1500" height="1500" fill="#ffffff"></rect><g transform="matrix(0.6666666666666666,0,0,0.6666666666666666,248.44294206979555,189.33333333333348)"><svg viewBox="0 0 321 360" data-background-color="#ffffff" preserveAspectRatio="xMidYMid meet" height="1682" width="1500" xmlns="http://www.w3.org/2000/svg" xmlns:xlink="http://www.w3.org/1999/xlink"><g id="tight-bounds" transform="matrix(1,0,0,1,0.5001844044044219,0)"><svg viewBox="0 0 320 360" height="360" width="320"><g><svg></svg></g><g><svg viewBox="0 0 320 360" height="360" width="320"><g><path d="M294.684 112.125c-8.775-10.699-25.381-16.201-43-22.006-7.56-2.498-15.357-5.097-22.985-8.235-7.695-3.173-15.256-7.257-22.613-11.172-14.952-8.033-30.41-16.336-46.105-16.336-15.661 0-31.119 8.303-46.071 16.336-7.358 3.949-14.952 8.033-22.648 11.205-7.594 3.139-15.425 5.704-22.985 8.236-17.618 5.839-34.224 11.341-42.999 22.006-11.712 14.277-11.442 35.439-11.172 57.817 0.034 3.375 0.068 6.717 0.067 10.024 0 3.308-0.034 6.649-0.101 10.024-0.27 22.411-0.54 43.54 11.172 57.851 8.775 10.666 25.381 16.167 42.966 22.006 7.56 2.498 15.357 5.097 23.019 8.235 7.695 3.173 15.256 7.223 22.579 11.172 14.986 8.067 30.444 16.37 46.105 16.37 15.695 0 31.153-8.303 46.105-16.336 7.358-3.949 14.918-8.033 22.614-11.172 7.594-3.139 15.357-5.704 22.884-8.202 17.72-5.873 34.326-11.374 43.101-22.039 11.712-14.277 11.442-35.439 11.171-57.817-0.034-3.409-0.101-6.75-0.101-10.058 0-3.308 0.034-6.649 0.101-9.991 0.371-22.479 0.641-43.641-11.104-57.918zM305.552 103.215c-15.728-19.171-45.801-23.727-71.486-34.326-22.985-9.45-46.375-28.588-74.051-28.587-27.676 0-51.066 19.137-74.052 28.587-25.719 10.598-55.758 15.155-71.486 34.326-17.078 20.791-14.311 50.121-14.311 76.785 0 26.63-2.768 55.994 14.277 76.785 15.728 19.171 45.801 23.727 71.487 34.326 22.985 9.484 46.375 28.588 74.051 28.587 27.676 0 51.066-19.103 74.051-28.587 25.719-10.598 55.758-15.155 71.486-34.326 17.045-20.791 14.277-50.121 14.277-76.785 0.068-26.664 2.835-55.994-14.243-76.785zM309.872 189.923c0.304 23.221 0.574 45.059-12.083 60.483-9.518 11.577-26.664 17.281-44.822 23.289-7.56 2.498-15.29 5.063-22.715 8.134-7.493 3.071-14.952 7.088-22.175 10.969-15.458 8.303-31.355 16.842-48.062 16.842-16.707 0-32.604-8.539-47.995-16.808-7.257-3.915-14.75-7.932-22.243-11.003-7.527-3.105-15.256-5.67-22.748-8.134-18.192-6.008-35.338-11.712-44.823-23.289-12.623-15.391-12.353-37.262-12.083-60.415 0.034-3.375 0.101-6.683 0.101-9.991 0-3.308-0.034-6.615-0.067-9.991-0.304-23.154-0.574-45.025 12.083-60.415 9.518-11.577 26.664-17.247 44.822-23.289 7.527-2.498 15.256-5.063 22.749-8.134 7.493-3.105 14.986-7.122 22.242-11.003 15.391-8.269 31.322-16.842 47.995-16.842 16.673 0 32.604 8.539 47.995 16.808 7.257 3.915 14.75 7.932 22.243 11.003 7.493 3.105 15.256 5.637 22.715 8.134 18.158 6.008 35.338 11.712 44.822 23.289 12.657 15.425 12.387 37.262 12.083 60.416-0.034 3.409-0.101 6.717-0.101 9.99 0 3.308 0.034 6.615 0.067 9.957z" fill="#000000" fill-rule="nonzero" stroke="none" stroke-width="1" stroke-linecap="butt" stroke-linejoin="miter" stroke-miterlimit="10" stroke-dasharray="" stroke-dashoffset="0" font-family="none" font-weight="none" font-size="none" text-anchor="none" style="mix-blend-mode: normal" data-fill-palette-color="tertiary"></path></g><g transform="matrix(1,0,0,1,64,165.22549816595617)"><svg viewBox="0 0 192 29.549003668087643" height="29.549003668087643" width="192"><g><svg viewBox="0 0 192 29.549003668087643" height="29.549003668087643" width="192"><g><svg viewBox="0 0 192 29.549003668087643" height="29.549003668087643" width="192"><g id="textblocktransform"><svg viewBox="0 0 192 29.549003668087643" height="29.549003668087643" width="192" id="textblock"><g><svg viewBox="0 0 192 29.549003668087643" height="29.549003668087643" width="192"><g transform="matrix(1,0,0,1,0,0)"><svg width="192" viewBox="-1.17 -37.022857142825 246.25 37.902857142825006" height="29.549003668087643" data-palette-color="#ffffff"><path d="M-1.17 0L-1.17 0Q0.34-5.59 2.17-11.35 4-17.11 6.73-25.13 9.45-33.15 10.45-36.23L10.45-36.23Q10.74-36.72 10.84-36.82L10.84-36.82 14.94-36.82Q16.38-36.82 19.19-36.87 22-36.91 23.44-36.91L23.44-36.91 27.54-36.91Q27.91-36.91 28.15-36.9 28.39-36.89 28.74-36.84 29.08-36.79 29.28-36.69 29.49-36.6 29.64-36.4 29.79-36.21 29.79-35.94L29.79-35.94 41.04-0.27Q41.04 0.22 40.69 0.4 40.33 0.59 39.36 0.59L39.36 0.59 37.11 0.59Q36.13 0.59 34.2 0.61 32.28 0.63 31.3 0.63L31.3 0.63Q31.01 0.63 30.11 0.67 29.22 0.71 28.61 0.7 28 0.68 27.26 0.62 26.51 0.56 26.06 0.35 25.61 0.15 25.49-0.2L25.49-0.2 25.49-1.81Q25.24-3.03 24.63-4.05 24.02-5.08 23.34-5.08L23.34-5.08 14.94-5.08 13.67 0.1Q13.4 0.68 10.94 0.68L10.94 0.68 8.98 0.68Q7.93 0.68 5.86 0.76 3.78 0.83 2.73 0.83L2.73 0.83 2.05 0.83Q1.66 0.83 0.82 0.85-0.02 0.88-0.49 0.88L-0.49 0.88Q-0.68 0.68-1.17 0ZM17.72-23.29L15.77-14.82 16.46-13.67 18.07-13.67Q20.02-13.67 21.64-13.9 23.27-14.14 23.27-14.65L23.27-14.65 20.12-28.71Q19.68-28.71 18.93-27.05 18.19-25.39 17.72-23.29L17.72-23.29ZM43.02 0.68L41.94 0.1 41.94-10.94Q41.89-16.99 42.33-34.03L42.33-34.03 42.33-36.04Q42.33-36.57 42.53-36.67L42.53-36.67 59.32-36.67Q59.57-36.67 60.31-34.81 61.06-32.96 62.12-30.04 63.18-27.12 63.62-26.03L63.62-26.03 67.04-17.09 67.04-26.56Q67.04-27.78 67.1-31.04 67.16-34.3 67.14-36.13L67.14-36.13Q67.14-36.82 71.04-36.82L71.04-36.82Q72.26-36.82 74.39-36.77 76.51-36.72 77-36.72L77-36.72 78.85-36.72Q79.25-36.72 79.25-36.57L79.25-36.57Q79.39-29.79 79.39-17.14L79.39-17.14 79.39-0.2Q79.22 0.44 77.83 0.44L77.83 0.44 77.19 0.44Q75.93 0.44 73.46 0.49 70.99 0.54 69.72 0.54L69.72 0.54 62.55 0.54Q62.2 0.42 61.13-2.54L61.13-2.54Q59.98-5.74 57.71-11.79 55.44-17.85 55.17-18.55L55.17-18.55Q55.17-17.11 55.15-14.26 55.12-11.4 55.12-9.96L55.12-9.96Q55.12-8.89 55.17-6.74 55.22-4.59 55.22-3.52L55.22-3.52 55.22-0.44Q55.22 0.68 54.25 0.68L54.25 0.68 43.02 0.68ZM79.25-36.52L79.25-36.62 79.25-36.52ZM84.71-1.37L84.71-35.84Q84.71-36.11 85.02-36.32 85.32-36.52 85.91-36.63 86.49-36.74 87.08-36.82 87.67-36.89 88.48-36.91 89.3-36.94 89.84-36.94 90.38-36.94 91.07-36.93 91.77-36.91 91.89-36.91L91.89-36.91 94.62-36.91Q95.43-36.91 96.88-36.96 98.33-37.01 99.02-37.01L99.02-37.01Q110.66-37.01 115.67-33.01L115.67-33.01 116.55-32.23Q116.96-31.84 117.48-31.21 117.99-30.59 118.73-29.33 119.48-28.08 120.06-26.61 120.65-25.15 121.06-23 121.48-20.85 121.48-18.55L121.48-18.55Q121.48-14.99 120.5-11.89 119.53-8.79 117.83-6.52 116.13-4.25 113.85-2.6 111.57-0.95 108.91-0.13 106.25 0.68 103.41 0.68L103.41 0.68 102.63 0.68Q101.58 0.68 99.51 0.63 97.43 0.59 96.38 0.59L96.38 0.59Q90.25 0.59 85.3 0.78L85.3 0.78Q84.71-0.39 84.71-1.37L84.71-1.37ZM99.07-7.81L99.07-7.81Q100.53-7.81 101.7-8.14 102.88-8.47 103.68-9.01 104.49-9.55 105.1-10.38 105.71-11.21 106.06-12.08 106.42-12.96 106.62-14.1 106.83-15.23 106.9-16.25 106.98-17.26 106.98-18.51L106.98-18.51 106.98-20.02Q106.98-24.51 105.2-26.65 103.41-28.78 98.97-28.91L98.97-28.91Q98.85-28.64 98.58-28.17 98.31-27.71 98.19-27.44L98.19-27.44 98.19-26.27Q98.19-25.9 98.16-24.37L98.16-24.37Q97.85-8.01 99.07-7.81ZM160.25 0.1L160.25 0.1Q159.71 0.63 157.99 0.73 156.27 0.83 153.75 0.68 151.24 0.54 151.07 0.54L151.07 0.54Q149.41 0.54 148.67 0.49L148.67 0.49 146.23 0.49Q145.7 0.32 145.33-1.11 144.96-2.54 144.61-5.21 144.26-7.89 144.23-8.06L144.23-8.06Q144.13-10.47 143.45-11.24 142.77-12.01 140.96-12.01L140.96-12.01 139.89-12.01 139.89-0.1Q139.84 0.2 139.37 0.39 138.91 0.59 138.04 0.65 137.18 0.71 136.5 0.72 135.83 0.73 134.73 0.71 133.64 0.68 133.39 0.68L133.39 0.68 129.88 0.68Q126.9 0.68 125.38 0.73L125.38 0.73Q125.04 0.59 124.7 0.39L124.7 0.39 124.7-36.04Q124.7-36.72 126.65-36.72L126.65-36.72 147.94-36.72Q153.48-36.57 156.38-34.08 159.27-31.59 159.27-27.05L159.27-27.05Q159.27-21.14 153.31-18.41L153.31-18.41Q154.41-18.07 155.29-17.46 156.17-16.85 156.76-16.15 157.34-15.45 157.78-14.48 158.22-13.5 158.46-12.65 158.71-11.79 158.89-10.62 159.07-9.45 159.15-8.59 159.22-7.74 159.33-6.56 159.44-5.37 159.51-4.69L159.51-4.69 159.51-2.54Q159.59-2.15 159.97-1.44 160.34-0.73 160.44-0.39L160.44-0.39Q160.44 0.1 160.25 0.1ZM139.74-26.37L139.74-26.37Q139.74-24.9 139.76-24.19 139.79-23.49 140.03-22.34 140.28-21.19 140.76-20.7L140.76-20.7Q141.79-20.7 142.7-20.92 143.62-21.14 144.47-21.63 145.33-22.12 145.83-23.08 146.33-24.05 146.33-25.39L146.33-25.39Q146.33-26.15 146.06-26.72 145.79-27.29 145.28-27.64 144.77-27.98 144.27-28.19 143.77-28.39 143.05-28.48 142.33-28.56 141.91-28.59 141.5-28.61 140.91-28.61L140.91-28.61 140.32-28.61Q139.96-28.44 139.85-27.93 139.74-27.42 139.74-26.37ZM162.69-0.88L162.69-0.88 162.69-1.81Q162.69-5.98 162.78-14.14 162.88-22.29 162.88-26.46L162.88-26.46 162.88-36.57 191.3-36.57 191.3-28.56Q191.3-28.49 191.3-28.2 191.3-27.91 191.3-27.81 191.3-27.71 191.27-27.45 191.25-27.2 191.19-27.1 191.13-27 191.02-26.82 190.91-26.64 190.76-26.56 190.62-26.49 190.37-26.43 190.13-26.37 189.83-26.37L189.83-26.37 189.15-26.37Q182.83-26.37 177.63-26.56L177.63-26.56Q177.58-26.17 177.47-25.35 177.36-24.54 177.3-23.91 177.24-23.29 177.24-22.71L177.24-22.71 188.86-22.71Q189.59-22.71 189.83-22.51 190.08-22.31 190.08-21.88L190.08-21.88Q190.08-21.75 190.05-21.48 190.03-21.22 190.03-21.09L190.03-21.09Q190.03-19.92 190.1-17.63 190.18-15.33 190.18-14.16L190.18-14.16Q190.1-13.67 189.78-13.67L189.78-13.67Q189.64-13.67 189.54-13.77L189.54-13.77Q181.83-13.38 178.12-13.38L178.12-13.38 177.48-13.38 177.48-9.86Q179.65-9.86 183.77-10.06 187.88-10.25 189.93-10.25L189.93-10.25Q191.54-10.25 191.79-9.57L191.79-9.57 191.79-7.71Q191.79-6.54 191.84-4.25 191.88-1.95 191.88-0.78L191.88-0.78Q191.88 0.44 190.91 0.44L190.91 0.44Q189.64 0.44 187 0.42 184.37 0.39 183 0.39L183 0.39Q179.48 0.39 172.94 0.57 166.4 0.76 163.47 0.78L163.47 0.78 162.78 0Q162.69-0.68 162.69-0.88ZM221.45 0.63L218.42-19.04Q218.32-18.38 218.04-15.94 217.76-13.5 217.42-10.82 217.08-8.13 216.66-5.43 216.25-2.73 215.71-0.98 215.17 0.78 214.64 0.78L214.64 0.78Q213.59 0.78 211.54 0.73 209.48 0.68 208.43 0.68L208.43 0.68Q203.72 0.68 199.74 0.88L199.74 0.88Q199.4 0.71 199.15 0.34 198.89-0.02 198.73-0.54 198.57-1.05 198.49-1.45 198.4-1.86 198.32-2.48 198.23-3.1 198.18-3.32L198.18-3.32Q193.96-23.46 192.96-27.83L192.96-27.83 191.25-36.04Q191.25-36.72 191.93-36.96L191.93-36.96Q192.52-36.91 193.79-36.91L193.79-36.91 195.74-36.91Q196.33-36.91 197.42-36.96 198.52-37.01 199.01-37.01L199.01-37.01Q199.47-37.04 200.38-37 201.28-36.96 201.55-36.96L201.55-36.96 202.97-36.96Q203.21-36.91 203.7-36.91L203.7-36.91 204.43-36.91Q204.87-36.79 205.31-35.23 205.75-33.67 206.14-30.93 206.53-28.2 206.77-26.16 207.02-24.12 207.32-21.23 207.63-18.33 207.63-18.29L207.63-18.29 210.73-36.87Q211.9-36.77 212.59-36.77L212.59-36.77 214.1-36.77Q216.08-36.77 219.82-36.79 223.57-36.82 225.43-36.82L225.43-36.82Q225.94-36.82 226.06-36.43L226.06-36.43 229.11-16.24Q229.58-21.8 230.26-26.42L230.26-26.42 231.73-36.33Q231.9-36.91 233.43-36.91L233.43-36.91 234.61-36.91Q234.9-36.94 235.52-36.9 236.14-36.87 236.41-36.87L236.41-36.87 238.56-36.87Q239.47-36.87 240.6-36.84 241.74-36.82 241.78-36.82L241.78-36.82 244.67-36.82Q244.88-36.82 244.96-36.49 245.03-36.16 245.08-35.4L245.08-35.4 237.22 0.54Q236.73 0.59 236.05 0.59 235.36 0.59 234.8 0.57 234.24 0.56 233.51 0.55 232.78 0.54 232.31 0.54L232.31 0.54Q231.31 0.54 229.27 0.51 227.23 0.49 226.21 0.49L226.21 0.49Q226.09 0.49 221.45 0.63L221.45 0.63Z" opacity="1" transform="matrix(1,0,0,1,0,0)" fill="#ffffff" class="wordmark-text-0" data-fill-palette-color="quaternary" id="text-0"></path></svg></g></svg></g></svg></g></svg></g></svg></g></svg></g></svg></g><defs></defs></svg><rect width="320" height="360" fill="none" stroke="none" visibility="hidden"></rect></g></svg></g></svg>